<?xml version="1.0" encoding="iso-8859-1"?>
<!-- Uploaded to: SVG Repo, www.svgrepo.com, Generator: SVG Repo Mixer Tools -->
<svg height="800px" width="800px" version="1.1" id="Layer_1" xmlns="http://www.w3.org/2000/svg" xmlns:xlink="http://www.w3.org/1999/xlink" 
	 viewBox="0 0 512 512" xml:space="preserve">
<circle style="fill:#FFDC64;" cx="256" cy="256" r="158.897"/>
<circle style="fill:#FFC850;" cx="256" cy="256" r="132.414"/>
<circle style="fill:#FFF082;" cx="256" cy="256" r="114.759"/>
<g>
	<path style="fill:#D5DCED;" d="M487.362,146.276c-2.087-4.401-7.353-6.28-11.758-4.185c-4.405,2.091-6.284,7.358-4.19,11.763
		c15.215,32.034,22.931,66.4,22.931,102.146c0,131.423-106.922,238.345-238.345,238.345c-68.546,0-132.167-28.702-177.378-79.245
		l24.516,8.172c4.655,1.556,9.63-0.961,11.164-5.582c1.543-4.625-0.957-9.625-5.578-11.168l-52.966-17.655
		c-2.897-0.966-6.094-0.366-8.448,1.599c-2.354,1.956-3.518,4.995-3.086,8.025l8.828,61.793c0.629,4.401,4.405,7.577,8.733,7.577
		c0.414,0,0.836-0.03,1.259-0.09c4.828-0.69,8.181-5.16,7.491-9.987l-4.299-30.08C114.741,481.478,182.749,512,256,512
		c141.155,0,256-114.84,256-256C512,217.617,503.706,180.698,487.362,146.276z"/>
	<path style="fill:#D5DCED;" d="M17.655,256C17.655,124.577,124.577,17.655,256,17.655c68.382,0,132.223,28.726,177.462,79.273
		l-24.599-8.2c-4.672-1.556-9.621,0.957-11.164,5.582s0.957,9.625,5.578,11.168l52.966,17.655c0.914,0.306,1.854,0.452,2.793,0.452
		c2.035,0,4.043-0.707,5.655-2.051c2.354-1.956,3.518-4.995,3.086-8.025l-8.828-61.793c-0.69-4.823-5.155-8.185-9.992-7.487
		c-4.828,0.69-8.181,5.16-7.491,9.987l4.291,30.023C397.219,30.524,329.031,0,256,0C114.845,0,0,114.84,0,256
		c0,38.383,8.294,75.302,24.638,109.725c1.508,3.181,4.681,5.038,7.982,5.038c1.267,0,2.552-0.271,3.776-0.853
		c4.405-2.091,6.284-7.358,4.19-11.763C25.37,326.112,17.655,291.746,17.655,256z"/>
</g>
<path style="fill:#E1A546;" d="M264.828,249.417v-45.682c15.593,2.281,26.483,10.227,26.483,17.506c0,4.875,3.948,8.828,8.828,8.828
	c4.879,0,8.828-3.953,8.828-8.828c0-18.061-18.795-32.57-44.138-35.345v-9.345c0-4.875-3.948-8.828-8.828-8.828
	c-4.879,0-8.828,3.953-8.828,8.828v9.345c-25.343,2.775-44.138,17.283-44.138,35.345c0,25.638,24.566,35.372,44.138,41.342v45.682
	c-15.593-2.281-26.483-10.227-26.483-17.506c0-4.875-3.948-8.828-8.828-8.828c-4.879,0-8.828,3.953-8.828,8.828
	c0,18.061,18.795,32.57,44.138,35.345v9.345c0,4.875,3.948,8.828,8.828,8.828c4.879,0,8.828-3.953,8.828-8.828v-9.345
	c25.343-2.775,44.138-17.283,44.138-35.345C308.966,265.121,284.399,255.386,264.828,249.417z M220.69,221.241
	c0-7.279,10.89-15.225,26.483-17.506v40.209C227.484,237.193,220.69,231.093,220.69,221.241z M264.828,308.265v-40.209
	c19.689,6.751,26.483,12.851,26.483,22.702C291.31,298.038,280.42,305.984,264.828,308.265z"/>
</svg>